<svg width="20" height="20" viewBox="0 0 20 20" fill="none" xmlns="http://www.w3.org/2000/svg">
<path fill-rule="evenodd" clip-rule="evenodd" d="M10 0V1.66667C14.6121 1.66667 18.3333 5.38789 18.3333 10C18.3333 14.6121 14.6121 18.3333 10 18.3333C5.38789 18.3333 1.66667 14.6121 1.66667 10C1.66667 7.27786 2.98751 4.87769 5 3.35938V7.5H6.66667V1.66667V0.833333H5.83333H0V2.5H3.41146C1.32783 4.33226 0 7.01412 0 10C0 15.5129 4.48711 20 10 20C15.5129 20 20 15.5129 20 10C20 4.48711 15.5129 0 10 0Z" fill="black"/>
</svg>
