<svg width="22" height="4" viewBox="0 0 22 4" fill="none" xmlns="http://www.w3.org/2000/svg">
<path fill-rule="evenodd" clip-rule="evenodd" d="M1.83333 0C0.820811 0 0 0.895431 0 2C0 3.10457 0.820811 4 1.83333 4C2.84586 4 3.66667 3.10457 3.66667 2C3.66667 0.895431 2.84586 0 1.83333 0ZM11 0C9.9875 0 9.16669 0.895431 9.16669 2C9.16669 3.10457 9.9875 4 11 4C12.0125 4 12.8334 3.10457 12.8334 2C12.8334 0.895431 12.0125 0 11 0ZM20.1666 0C19.1541 0 18.3333 0.895431 18.3333 2C18.3333 3.10457 19.1541 4 20.1666 4C21.1792 4 22 3.10457 22 2C22 0.895431 21.1792 0 20.1666 0Z" fill="black"/>
</svg>
