<svg width="36" height="36" viewBox="0 0 36 36" fill="none" xmlns="http://www.w3.org/2000/svg">
<path id="Shape" fill-rule="evenodd" clip-rule="evenodd" d="M22.0024 0C14.2884 0 8.00486 6.28351 8.00486 13.9976C8.00486 17.35 9.17919 20.4198 11.1543 22.8335L0 33.9879L2.01215 36L13.1665 24.8457C15.5802 26.8208 18.65 27.9951 22.0024 27.9951C29.7165 27.9951 36 21.7116 36 13.9976C36 6.28351 29.7165 0 22.0024 0ZM22.0024 2.79951C28.2035 2.79951 33.2005 7.79648 33.2005 13.9976C33.2005 20.1987 28.2035 25.1956 22.0024 25.1956C15.8013 25.1956 10.8044 20.1987 10.8044 13.9976C10.8044 7.79648 15.8013 2.79951 22.0024 2.79951Z" fill="#2B2B2B"/>
</svg>
