<svg width="15" height="19" viewBox="0 0 15 19" fill="none" xmlns="http://www.w3.org/2000/svg">
<path id="Shape" fill-rule="evenodd" clip-rule="evenodd" d="M7.5 0C6.67157 0 6 0.654353 6 1.46154C6 1.52386 6.01567 1.58396 6.02344 1.64423C3.43046 2.28997 1.5 4.58473 1.5 7.30769V13.8846C1.5 14.2975 1.17377 14.6154 0.75 14.6154H0V16.0769H5.39062C5.30493 16.3077 5.25 16.5497 5.25 16.8077C5.25 18.0098 6.26624 19 7.5 19C8.73376 19 9.75 18.0098 9.75 16.8077C9.75 16.5497 9.69507 16.3077 9.60938 16.0769H15V14.6154H14.25C13.8262 14.6154 13.5 14.2975 13.5 13.8846V7.51322C13.5 4.76661 11.6176 2.31911 8.97656 1.64423C8.98433 1.58396 9 1.52386 9 1.46154C9 0.654353 8.32843 0 7.5 0ZM7.17188 2.92307C7.28099 2.91536 7.3888 2.92315 7.5 2.92307C7.54766 2.92304 7.59262 2.92167 7.64062 2.92307C10.0907 2.99472 12 5.08751 12 7.51322V13.8846C12 14.1426 12.0549 14.3846 12.1406 14.6154H2.85938C2.94507 14.3846 3 14.1426 3 13.8846V7.30769C3 4.98683 4.83364 3.08839 7.17188 2.92307ZM7.5 16.0769C7.9231 16.0769 8.25 16.3954 8.25 16.8077C8.25 17.2199 7.9231 17.5385 7.5 17.5385C7.0769 17.5385 6.75 17.2199 6.75 16.8077C6.75 16.3954 7.0769 16.0769 7.5 16.0769Z" fill="white"/>
</svg>
