<svg width="42" height="42" viewBox="0 0 42 42" fill="none" xmlns="http://www.w3.org/2000/svg">
<path fill-rule="evenodd" clip-rule="evenodd" d="M21 42C32.598 42 42 32.598 42 21C42 9.40202 32.598 0 21 0C9.40202 0 0 9.40202 0 21C0 32.598 9.40202 42 21 42ZM20 12C20 11.4477 20.4477 11 21 11C21.5523 11 22 11.4477 22 12V20H30C30.5523 20 31 20.4477 31 21C31 21.5523 30.5523 22 30 22H22V30C22 30.5523 21.5523 31 21 31C20.4477 31 20 30.5523 20 30V22H12C11.4477 22 11 21.5523 11 21C11 20.4477 11.4477 20 12 20H20V12Z" fill="white"/>
</svg>
