<svg width="24" height="24" viewBox="0 0 24 24" fill="none" xmlns="http://www.w3.org/2000/svg">
<path fill-rule="evenodd" clip-rule="evenodd" d="M0.000494764 4.7997L0 0H4.7997L4.80069 4.7997H0.000494764ZM9.60114 0H14.4003H19.2001V4.7997H14.4003H9.60114V0ZM19.2001 9.59941V9.59966L14.4003 9.59966H9.60114V14.3989H14.4003V14.4013H19.2001V19.1996V23.9998H23.9993V19.1996V14.3989H19.2001V9.59966H23.9995L24 4.79971H19.2001H14.4003V9.59941H19.2001ZM9.60114 24V19.2L14.4003 19.1996V24H9.60114ZM9.60089 4.79971H4.80069V9.59941H9.60089V4.79971ZM4.7997 14.3989L4.80069 9.59966H9.60114V14.3989H4.7997ZM9.60089 19.2001V14.3989H4.7997H0V19.2001V23.9998H4.7997L4.7997 19.2001H9.60089ZM0.000494764 4.79971L0 9.59966L4.80069 9.59966L4.80069 4.79971H0.000494764Z" fill="#00417B"/>
</svg>
