<svg width="21" height="20" viewBox="0 0 21 20" fill="none" xmlns="http://www.w3.org/2000/svg">
<path fill-rule="evenodd" clip-rule="evenodd" d="M10.5 0L9.8366 1.51203L7.45752 6.84994L1.64706 7.4685L0 7.65178L1.23529 8.75143L5.55882 12.669L4.34641 18.3963L4.00327 20L5.44444 19.1753L10.5 16.2428L15.5556 19.1753L16.9967 20L16.6536 18.3963L15.4412 12.669L19.7647 8.75143L21 7.65178L19.3529 7.4685L13.5425 6.84994L11.1634 1.51203L10.5 0ZM10.5 3.5968L12.3758 7.83506L12.5588 8.22452L12.9706 8.27034L17.5687 8.75144L14.1373 11.8442L13.817 12.142L13.9085 12.5544L14.8693 17.0676L10.866 14.7766L10.5 14.5475L10.134 14.7766L6.13074 17.0676L7.09153 12.5544L7.18303 12.142L6.86277 11.8442L3.4314 8.75144L8.02944 8.27034L8.4412 8.22452L8.62421 7.83506L10.5 3.5968Z" fill="#2B2B2B"/>
</svg>
