<svg width="17" height="17" viewBox="0 0 17 17" fill="none" xmlns="http://www.w3.org/2000/svg">
<path fill-rule="evenodd" clip-rule="evenodd" d="M8.5 0L8.32292 0.0442133L0.53125 2.16645L0 2.3212V2.85176V16.2926V17H0.708333H7.08333H7.79167V16.2926V14.1704H9.20833V16.2926V17H9.91667H16.2917H17V16.2926V2.85176V2.3212L16.4688 2.16645L8.67708 0.0442133L8.5 0ZM8.50002 1.45904L15.5834 3.38231V15.5852H10.625V13.4629V12.7555H9.91669H7.08335H6.37502V13.4629V15.5852H1.41669V3.38231L8.50002 1.45904ZM3.54169 4.26658V5.6814H4.95835V4.26658H3.54169ZM6.375 4.26658V5.6814H7.79167V4.26658H6.375ZM9.20831 4.26658V5.6814H10.625V4.26658H9.20831ZM12.0417 4.26658V5.6814H13.4584V4.26658H12.0417ZM3.54169 7.09623V8.51105H4.95835V7.09623H3.54169ZM6.375 7.09623V8.51105H7.79167V7.09623H6.375ZM9.20831 7.09623V8.51105H10.625V7.09623H9.20831ZM12.0417 7.09623V8.51105H13.4584V7.09623H12.0417ZM3.54169 9.92588V11.3407H4.95835V9.92588H3.54169ZM6.375 9.92588V11.3407H7.79167V9.92588H6.375ZM9.20831 9.92588V11.3407H10.625V9.92588H9.20831ZM12.0417 9.92588V11.3407H13.4584V9.92588H12.0417ZM3.54169 12.7555V14.1703H4.95835V12.7555H3.54169ZM12.0417 12.7555V14.1703H13.4584V12.7555H12.0417Z" fill="white"/>
</svg>
