<svg width="16" height="16" viewBox="0 0 16 16" fill="none" xmlns="http://www.w3.org/2000/svg">
<path fill-rule="evenodd" clip-rule="evenodd" d="M15.071 0.928909C14.6805 0.538391 14.0474 0.538391 13.6569 0.928909L8 6.58577L2.34314 0.928909C1.95264 0.538391 1.31946 0.538391 0.928955 0.928909C0.538422 1.31943 0.538422 1.95259 0.928955 2.34312L6.58578 7.99997L0.928924 13.6568C0.538392 14.0473 0.538392 14.6805 0.928924 15.071C1.31946 15.4616 1.95261 15.4616 2.34314 15.071L8 9.41418L13.6569 15.071C14.0474 15.4616 14.6805 15.4616 15.0711 15.071C15.4616 14.6805 15.4616 14.0473 15.0711 13.6568L9.41422 7.99997L15.071 2.34312C15.4616 1.95259 15.4616 1.31943 15.071 0.928909Z" fill="#2B2B2B"/>
</svg>
